<svg id="Layer_1" data-name="Layer 1" xmlns="http://www.w3.org/2000/svg" viewBox="0 0 528.21 182.64"><defs><style>.cls-1{fill:#09194c;}.cls-2,.cls-3{fill:#fff;}.cls-3{stroke:#000;stroke-miterlimit:10;stroke-width:0.5px;}</style></defs><path class="cls-1" d="M365.11,80.67a16.53,16.53,0,0,0,.83-2c.53-1.81.93-3.66,1.51-5.44.75-2.33,1.68-4.6,2.46-6.92s1.47-4.69,2.2-7c.9-2.87,1.76-5.75,2.7-8.61s2.08-5.86,3-8.82c1-3.13,1.85-6.32,2.83-9.46.74-2.39,1.62-4.75,2.4-7.14s1.47-4.69,2.24-7c.57-1.71,1.2-3.4,1.81-5.1a.92.92,0,0,0,.11-.33c-.2-1.74.87-1.73,2.15-1.73,9.4,0,18.79,0,28.19,0h1.51c0,.59.07,1.06.07,1.53q0,49.14,0,98.27c0,1.65,0,1.65-1.66,1.65q-8.7,0-17.39,0c-1.69,0-1.7,0-1.7-1.73V41.15l-.48-.11c-.47,1.14-1,2.27-1.39,3.43-.86,2.39-1.7,4.79-2.5,7.2-.55,1.66-1,3.37-1.55,5-.5,1.43-1.18,2.78-1.7,4.2-.36,1-.55,2-.87,3-.5,1.54-1,3.06-1.56,4.6-.38,1.1-.73,2.2-1.12,3.3-.51,1.43-1.06,2.85-1.56,4.28-.61,1.73-1.17,3.47-1.77,5.2-.51,1.51-1.05,3-1.57,4.52-.37,1.08-.7,2.18-1.08,3.27-.5,1.43-1.05,2.84-1.54,4.27-.63,1.8-1.21,3.61-1.83,5.41-.46,1.33-1,2.66-1.43,4-.4,1.15-.77,2.32-1.16,3.48l-1.57,4.54c-.18.52-.37,1-.6,1.68a15.49,15.49,0,0,1-1.66.15q-6.94,0-13.91,0c-2.12,0-2.09-.06-2.72-2.11-.75-2.39-1.67-4.73-2.48-7.11-.55-1.6-1-3.24-1.57-4.84-.44-1.3-.93-2.59-1.4-3.88-.38-1-.77-2.1-1.15-3.16-.61-1.7-1.24-3.4-1.82-5.11-.33-1-.56-2-.89-3-.51-1.51-1.08-3-1.61-4.52L342.2,74c-.51-1.46-1-2.93-1.55-4.4-.38-1.08-.75-2.17-1.13-3.25-.7-2-1.42-4-2.12-6-.6-1.69-1.19-3.38-1.8-5.07s-1.22-3.28-1.81-4.93c-.27-.78-.5-1.57-.75-2.36-.49-1.62-1-3.25-1.5-4.85-.13-.37-.53-.64-1-1.23-.05.91-.11,1.48-.11,2.05q0,33.32,0,66.64c0,2,0,2-2,2H311.51c-2,0-2,0-2-2.08V13.43c0-.44,0-.88,0-1.32,0-.68.23-1,1-1,9.88,0,19.75,0,29.63.05a2,2,0,0,1,1.31.93,10,10,0,0,1,.73,2.08c.92,2.86,1.83,5.72,2.76,8.57.86,2.62,1.74,5.22,2.62,7.83s1.78,5.35,2.69,8c.84,2.42,1.7,4.83,2.55,7.24s1.74,4.75,2.54,7.15,1.47,4.83,2.29,7.22c.48,1.42,1.19,2.77,1.69,4.18.55,1.57.95,3.18,1.48,4.75.34,1,.82,2,1.17,3s.51,1.86.82,2.78c.64,1.93,1.33,3.85,2,5.78Z" transform="translate(-14.01 -4.75)"/><path class="cls-1" d="M528.25,45h-3.1c-5.64,0-11.27,0-16.91,0-1.15,0-1.52-.32-1.81-1.55a19.69,19.69,0,0,0-2.28-5.51,19.19,19.19,0,0,0-3.74-4.53,17.57,17.57,0,0,0-5.82-3.86c-1.4-.48-2.74-1.12-4.11-1.69a1.73,1.73,0,0,0-.46-.12,43,43,0,0,0-6.27-.5c-3.85.22-7.72.69-11.23,2.49a24.08,24.08,0,0,0-7.78,6.3,29.35,29.35,0,0,0-4.67,8.11,53.82,53.82,0,0,0-2.14,7.52,51.22,51.22,0,0,0-1,14.33A50.49,50.49,0,0,0,458,72.4a23.49,23.49,0,0,0,.88,4.13,56.56,56.56,0,0,0,3,6.85,29.93,29.93,0,0,0,3.51,5.14,23.4,23.4,0,0,0,6.8,5.33A18.44,18.44,0,0,0,479.27,96c2,.19,3.94.42,5.92.53a23.75,23.75,0,0,0,7-1.13c4.94-1.21,8.27-4.42,10.95-8.41a26.2,26.2,0,0,0,2.72-5.79,67.23,67.23,0,0,0,1.83-6.61,1.18,1.18,0,0,1,1.34-1c6.28,0,12.55,0,18.83,0,1.2,0,1.45.32,1.29,1.51-.28,2.07-.43,4.17-.89,6.21-.42,1.88-1.31,3.67-1.76,5.55a32,32,0,0,1-2.58,6.08,31.91,31.91,0,0,1-5.75,8.39,44.92,44.92,0,0,1-5.9,5.39A44.36,44.36,0,0,1,505,111a45.06,45.06,0,0,1-7.37,2.6,26.89,26.89,0,0,1-5.59.86c-4.13.24-8.27.47-12.4.42a39.68,39.68,0,0,1-6.41-1.06,26.6,26.6,0,0,1-3.21-.71c-1.89-.59-3.75-1.23-5.6-1.94a37.34,37.34,0,0,1-4.67-2A46.48,46.48,0,0,1,440.83,89.6a64.54,64.54,0,0,1-3.05-6.73,57.55,57.55,0,0,1-1.55-6.18l-1.05-4.36a3.09,3.09,0,0,1-.12-.59c-.23-3.88-.7-7.78-.59-11.66A96.55,96.55,0,0,1,435.75,49,29.46,29.46,0,0,1,437,43.4c.87-2.51,2-4.93,3-7.37a28,28,0,0,1,2.24-4.68,84.25,84.25,0,0,1,5.3-7,36.14,36.14,0,0,1,4.77-4.89,50.68,50.68,0,0,1,6.27-4.24A53.94,53.94,0,0,1,464.85,12c1.6-.69,3.36-1,5-1.57,2.62-.9,5.37-1,8.05-1.46,3.83-.71,7.63-.45,11.43-.31a38,38,0,0,1,8,1.34A48.6,48.6,0,0,1,507,13.6a41.22,41.22,0,0,1,8.52,5.62,32.39,32.39,0,0,1,6.9,8.16,60.89,60.89,0,0,1,3.2,5.73,32.92,32.92,0,0,1,1.62,5.48c.45,1.86.76,3.76,1.12,5.64A3,3,0,0,1,528.25,45Z" transform="translate(-14.01 -4.75)"/><path class="cls-1" d="M262.63,11.13c12.64,33.78,25.24,67.46,37.92,101.32-.71,0-1.25.13-1.78.13q-9.84,0-19.67,0c-1.7,0-2-.35-2.46-2-.7-2.35-1.6-4.65-2.4-7-.31-.88-.57-1.78-.87-2.66-.6-1.76-1.23-3.5-1.81-5.26-.34-1-.57-2.08-.89-3.12a11.84,11.84,0,0,0-.85-2.29c-.15-.25-.78-.32-1.19-.32-2.76,0-5.52,0-8.28,0-9,0-18,0-27,0A2.22,2.22,0,0,0,231,91.5c-.79,2.2-1.37,4.48-2.1,6.7-.47,1.41-1.08,2.77-1.57,4.17-.61,1.72-1.13,3.48-1.75,5.19-.55,1.49-1.14,3-1.81,4.41a1.49,1.49,0,0,1-1.14.59q-10,0-20,0a6.65,6.65,0,0,1-1.23-.23c.61-1.75,1.17-3.38,1.76-5,.5-1.35,1-2.68,1.55-4,.6-1.63,1.18-3.27,1.79-4.9.46-1.2.94-2.39,1.42-3.59.37-.92.76-1.84,1.12-2.77.82-2.16,1.63-4.33,2.45-6.5.76-2,1.51-4,2.28-6,.59-1.52,1.22-3,1.79-4.56s1-2.87,1.5-4.3,1.17-3,1.74-4.53,1.05-2.86,1.58-4.29,1.07-2.76,1.59-4.15c.59-1.59,1.15-3.19,1.77-4.77.51-1.31,1.11-2.59,1.61-3.9.8-2.1,1.54-4.23,2.34-6.33s1.58-4,2.37-6.05c.28-.73.55-1.47.83-2.2,1.08-2.81,2.19-5.61,3.23-8.44.77-2.12,1.4-4.3,2.19-6.41s1.61-3.88,2.42-5.82c.28-.69.46-1.42.8-2.07a1.15,1.15,0,0,1,.84-.55C247.72,11.13,255.11,11.13,262.63,11.13ZM251.18,36.44l-.38-.09c-.45,1.08-1,2.14-1.35,3.24-.77,2.16-1.46,4.34-2.24,6.5s-1.61,4.22-2.36,6.35-1.41,4.33-2.12,6.5c-.25.77-.48,1.56-.77,2.32q-1.2,3.14-2.42,6.27c-.6,1.56-1.21,3.13-1.79,4.7a6.22,6.22,0,0,0-.21,1h26.3C259.59,60.86,255.39,48.65,251.18,36.44Z" transform="translate(-14.01 -4.75)"/><path d="M278.52,149.37V129.75h2.66v1.31c0,7.12,0,14.23,0,21.34,0,.51-.32,1.47-.47,1.46-.95,0-2.06.63-2.82-.57-2.12-3.37-4.3-6.71-6.41-10.1-1.2-1.92-2.3-3.92-3.45-5.87-.74-1.25-1.49-2.48-2.23-3.72l-.33.07c0,.52-.13,1.05-.13,1.57,0,5.72.06,11.43.08,17.14,0,1.5-.67,2-2.08,1.51-.27-.1-.48-.74-.49-1.13,0-3.84,0-7.67,0-11.51V129.69c1.08,0,2.1,0,3.12,0a.87.87,0,0,1,.57.36c2,3,4,6,5.9,9.13s3.55,6,5.3,9a5.79,5.79,0,0,1,.41,1.17Z" transform="translate(-14.01 -4.75)"/><path d="M222.2,149.34c0-.57.1-1.14.1-1.72q-.08-8.26-.14-16.53a1.38,1.38,0,0,1,2.18-1.33c.29.17.44.8.44,1.21,0,6,0,12,0,18,0,1.28,0,2.56,0,3.83,0,.89-.37,1.06-1.2,1.22-1.87.35-2.48-1-3.22-2.15-1.21-1.9-2.37-3.84-3.54-5.76q-2.88-4.74-5.74-9.47a19.31,19.31,0,0,0-2-3c0,.52-.15,1-.15,1.55q0,8.7,0,17.38a1.4,1.4,0,0,1-2.2,1.3c-.26-.15-.35-.75-.35-1.14q0-8.26,0-16.54v-6.31c2.52-.71,3.38-.27,4.63,1.81,1.78,2.95,3.76,5.79,5.57,8.73,1.51,2.44,2.88,5,4.32,7.44l.91,1.5Z" transform="translate(-14.01 -4.75)"/><path d="M354.18,133.67c-.07.87-.16,1.52-.16,2.17q0,8.39,0,16.77c0,.91-.18,1.4-1.26,1.38s-1.32-.31-1.32-1.3q0-10.91,0-21.81c0-.91.26-1.17,1.2-1.29a3.15,3.15,0,0,1,3.25,1.8c2.21,3.45,4.43,6.9,6.57,10.4,1.24,2,2.31,4.15,3.47,6.21.3.52.67,1,1,1.49l.28-.1c0-1.09.06-2.18,0-3.26-.09-1.42-.4-2.83-.42-4.25-.06-3.63,0-7.27,0-10.9,0-.93.19-1.36,1.25-1.37s1.34.38,1.34,1.4c0,7.11,0,14.22-.05,21.33,0,.53-.28,1.44-.61,1.53a2,2,0,0,1-2.53-.73q-2.44-4-4.88-7.94C359,141.46,356.69,137.72,354.18,133.67Z" transform="translate(-14.01 -4.75)"/><path d="M436.84,154.13a9.35,9.35,0,0,1-8.08-3.52,9.75,9.75,0,0,1-2.43-5.57c0-.73-.36-1.44-.47-2.18a6.19,6.19,0,0,1-.06-1.77,19.53,19.53,0,0,1,.63-3.24,23.06,23.06,0,0,1,1.46-3.57,9.21,9.21,0,0,1,5.27-4.41c2.13-.77,4.41-1.37,6.71-.32a36.84,36.84,0,0,1,3.46,1.5,8.9,8.9,0,0,1,3.61,4.62,14.26,14.26,0,0,1,1.19,6.8,15.38,15.38,0,0,1-2.35,7.16C443.62,153,440.54,154.07,436.84,154.13Zm8.38-12.54a26.12,26.12,0,0,0-1.1-5,8.06,8.06,0,0,0-4.33-4.61c-1.67-.68-5.25-.54-6.74.54-2.83,2-3.67,5.06-4.08,8.24a11.26,11.26,0,0,0,.52,4.68,9.29,9.29,0,0,0,3.58,5.39c3.33,2.28,6.58,1.59,9.09-1A11.66,11.66,0,0,0,445.22,141.59Z" transform="translate(-14.01 -4.75)"/><path d="M323.06,129.72c3.43,0,6.83-.36,10.1.12,2.74.4,4.43,2.25,4.55,5.65a5.92,5.92,0,0,1-3.51,6.11,1.05,1.05,0,0,0-.48.74c0,.16.32.37.48.56.65.75,1.59,1.41,1.88,2.28.84,2.47,1.43,5,2.05,7.56a1.64,1.64,0,0,1-.31,1.14,3.69,3.69,0,0,1-2.06-.37c-.47-.39-.55-1.26-.76-1.94-.65-2.1-1.14-4.28-2-6.3a3,3,0,0,0-3.19-1.87,29.82,29.82,0,0,1-3,0c-.84,0-1.21.33-1.2,1.23,0,2.67,0,5.34,0,8,0,1.06-.35,1.36-1.39,1.35s-1.29-.32-1.29-1.3c0-7.31,0-14.61,0-21.91C323,130.5,323,130.22,323.06,129.72Zm2.59,6.68c0,1.12.05,2.24,0,3.35-.05.91.37,1.23,1.19,1.23,1.36,0,2.72-.07,4.07,0,1.87,0,3.71-2.07,4-3.37.72-3.15-1.11-5.95-4.6-6.05-1,0-2.07,0-3.11,0s-1.53.53-1.54,1.54S325.65,135.28,325.65,136.4Z" transform="translate(-14.01 -4.75)"/><path d="M248.85,147.21c0,1.44-.07,2.88,0,4.32a1.58,1.58,0,0,1-1.53,1.86,58.44,58.44,0,0,1-7.21.61,10.65,10.65,0,0,1-9.5-5.47,11.39,11.39,0,0,1-1-3.22,14.62,14.62,0,0,1-.61-3.44,12.26,12.26,0,0,1,4.88-10.14,9.49,9.49,0,0,1,5.19-2.11,23.47,23.47,0,0,1,2.55-.44,43.34,43.34,0,0,1,5.2.6c.6.1,1.37.4,1.21,1.3a1.3,1.3,0,0,1-1.65,1.11,26.19,26.19,0,0,0-5-.62c-3.72.25-7.36,2-8.64,6.27-1.38,4.52-.64,9.33,2.78,11.91a15.73,15.73,0,0,0,4.17,1.87,9.13,9.13,0,0,0,5,0c1-.2,1.51-.58,1.49-1.63,0-1.83,0-3.67,0-5.51,0-.76-.24-1.09-1-1.06a19.88,19.88,0,0,1-3,0c-.31,0-.82-.56-.79-.82s.46-1,.74-1c1.95-.09,3.91,0,5.87-.05.75,0,.8.5.8,1.06Z" transform="translate(-14.01 -4.75)"/><path d="M386.26,143.44c-.36-1.87-.3-2,1.35-2s3.36,0,5,0c.78,0,1.17.21,1.16,1.08q0,4.67,0,9.35c0,1.05-.73,1.41-1.51,1.5a51.58,51.58,0,0,1-7.21.61,10.66,10.66,0,0,1-10.15-6.82,13.51,13.51,0,0,1-.74-7.84,10.94,10.94,0,0,1,6.09-8.39,21.74,21.74,0,0,1,3.92-1.31,11,11,0,0,1,3.15-.46,27.39,27.39,0,0,1,4.59.63c.43.1,1.09.77,1.05,1.09-.09.67-.38,1.61-1.44,1.29a14.15,14.15,0,0,0-5.51-.67c-3.51.34-6.43,2-7.93,5.09a11.74,11.74,0,0,0-.32,9.24,8.44,8.44,0,0,0,4.95,5.17,10.45,10.45,0,0,0,7.25.5,2.08,2.08,0,0,0,1.23-1.46c.15-1.87,0-3.75.06-5.63,0-.82-.45-1-1.14-1Z" transform="translate(-14.01 -4.75)"/><path d="M522.09,132.34a16.81,16.81,0,0,0-2.34-.51,20.27,20.27,0,0,0-5.09-.17,9.19,9.19,0,0,0-5.17,2.5,8.64,8.64,0,0,0-2.39,4.45,14.85,14.85,0,0,0-.57,2.64,11.2,11.2,0,0,0,2.58,7.64,9.4,9.4,0,0,0,4.77,2.74,12.73,12.73,0,0,0,5.18.05c1.19-.19,1.73-.75,1.78-1.8.08-1.67.06-3.35,0-5,0-.92-.43-1.55-1.57-1.44s-2.15,0-3.19,0c-.57-1.66-.38-2,1.19-2,1.76,0,3.52,0,5.28,0,.75,0,1.08.28,1.07,1,0,3.12,0,6.23,0,9.35,0,1.23-1.06,1.4-1.77,1.51a45.5,45.5,0,0,1-7,.64,10.68,10.68,0,0,1-9-4.5,22.25,22.25,0,0,1-1.3-2.69c-1.19-2.29-.72-4.73-.62-7.11a10.31,10.31,0,0,1,4.34-7.89c2.66-2.08,5.84-2.56,9.08-2.64a18.91,18.91,0,0,1,4,.57C522.44,130,522.58,130.49,522.09,132.34Z" transform="translate(-14.01 -4.75)"/><path d="M500.41,151.59c0,.54,0,.86.07,1.17.11.94-.28,1.23-1.23,1.22-3.59,0-7.19,0-10.78,0-1,0-1.24-.37-1.24-1.27q0-11,0-21.91c0-.88.29-1.18,1.17-1.17,3.44,0,6.87,0,10.31,0,.67,0,1.15.06,1.16.94s-.34,1.12-1.14,1.11c-2.32,0-4.63,0-7,0-1.62,0-1.86.25-1.86,1.88s0,3.51,0,5.27c0,1,.44,1.43,1.43,1.43q3.23,0,6.47,0c.68,0,1.52-.22,1.54.94s-.88,1-1.6,1c-2.08,0-4.15,0-6.23,0-1.48,0-1.58.11-1.59,1.55,0,1.95,0,3.91,0,5.87s0,1.94,2,1.94h8.48Z" transform="translate(-14.01 -4.75)"/><path d="M287.15,141.7c0-3.6,0-7.19,0-10.79,0-1,.33-1.3,1.32-1.29,3.36,0,6.71,0,10.07,0,.66,0,1.27-.06,1.29.93s-.47,1.13-1.26,1.12c-2.44,0-4.88,0-7.32,0-1,0-1.45.33-1.42,1.4.06,1.87.09,3.76,0,5.63-.07,1.27.5,1.59,1.62,1.57,2.2,0,4.4,0,6.6,0,.69,0,1.26,0,1.27,1s-.55,1-1.25,1c-2.32,0-4.63,0-6.95,0-.91,0-1.3.3-1.28,1.25q.06,3.47,0,6.95c0,.91.36,1.18,1.2,1.18,2.72,0,5.44,0,8.15,0,.87,0,1.32.15,1.28,1.17s-.29,1.24-1.25,1.23c-3.6,0-7.19,0-10.79,0-1,0-1.26-.35-1.26-1.26C287.17,149.05,287.15,145.37,287.15,141.7Z" transform="translate(-14.01 -4.75)"/><path d="M542.21,151.59c0,.61,0,1,0,1.47,0,.66-.26.91-.92.91-3.76,0-7.52,0-11.27,0-.81,0-1-.36-1-1.08q0-11.14,0-22.28c0-.72.28-1,1-1q5.28,0,10.55,0c.8,0,1,.29,1,1.05s-.39,1-1.1,1c-2.44,0-4.87,0-7.31,0-1.45,0-1.56.12-1.56,1.59,0,1.87,0,3.75,0,5.63,0,1,.36,1.37,1.33,1.36,2.2,0,4.4,0,6.59,0,.68,0,1.51-.23,1.53.95s-.88,1-1.59,1c-2.2,0-4.39,0-6.59,0-.94,0-1.27.37-1.26,1.28,0,2.31,0,4.63,0,6.94,0,.91.35,1.18,1.2,1.17C535.85,151.57,538.92,151.59,542.21,151.59Z" transform="translate(-14.01 -4.75)"/><path d="M188.61,141.71c0-3.64,0-7.27,0-10.9,0-.88.25-1.2,1.16-1.18,3.44,0,6.87,0,10.31,0,.69,0,1.14.09,1.15,1s-.38,1.11-1.16,1.1q-3.54,0-7.08,0c-1.47,0-1.84.38-1.84,1.85,0,1.71,0,3.43,0,5.15,0,1.12.48,1.59,1.59,1.58,2.36,0,4.72,0,7.08,0,.58,0,1.21-.07,1.25.87s-.41,1.08-1.16,1.08H192.8c-1.43,0-1.66.23-1.67,1.68q0,3,0,6c0,1.51.21,1.68,1.77,1.69,2.56,0,5.12,0,7.68,0,.83,0,1.37.12,1.34,1.15s-.35,1.26-1.29,1.25c-3.6,0-7.2,0-10.79,0-1,0-1.25-.34-1.24-1.25C188.63,149.06,188.61,145.38,188.61,141.71Z" transform="translate(-14.01 -4.75)"/><path d="M305.18,141.72c0-3.59,0-7.19,0-10.78,0-1,.24-1.34,1.27-1.32,3.36.06,6.71,0,10.07,0,.75,0,1.32,0,1.3,1s-.67,1-1.37,1c-2.27,0-4.55,0-6.83,0-1.6,0-1.91.32-1.92,1.87,0,1.76,0,3.51,0,5.27,0,1,.44,1.45,1.45,1.44,2.43,0,4.87,0,7.31,0,.54,0,1.13-.05,1.19.81s-.3,1.14-1.1,1.14c-2.4,0-4.8,0-7.19,0-1.46,0-1.65.19-1.66,1.67,0,2.08,0,4.16,0,6.23,0,1.08.43,1.49,1.5,1.47,2.68,0,5.35,0,8,0,.82,0,1.27.16,1.24,1.12s-.24,1.29-1.23,1.28c-3.56,0-7.11-.06-10.67,0-1.05,0-1.39-.32-1.38-1.36C305.2,149,305.18,145.35,305.18,141.72Z" transform="translate(-14.01 -4.75)"/><path d="M423.11,151.13a9.87,9.87,0,0,1,.48,1.54.83.83,0,0,1-.46.69,20,20,0,0,1-9.51.29c-2.75-.62-4.54-2.33-6.2-4.3a7.27,7.27,0,0,1-1-2.31,11.48,11.48,0,0,1-.72-6.92c.35-1.37.3-2.89.88-4.13a11.58,11.58,0,0,1,4.39-5,14.71,14.71,0,0,1,12-1.27c.89.23.76,1,.56,1.56a1.08,1.08,0,0,1-1.59.77c-2-1.08-4.14-.79-6.08-.42a8.13,8.13,0,0,0-6.27,4.87,11.66,11.66,0,0,0-1.15,6.73c.47,2.5,1.07,5.17,3.41,6.65s5,2.73,8.11,1.82C420.85,151.47,421.78,151.38,423.11,151.13Z" transform="translate(-14.01 -4.75)"/><path class="cls-1" d="M322.7,182.47h-2.22V164.34a2.51,2.51,0,0,1,3.67,1.1c2.23,3.54,4.45,7.07,6.64,10.63.44.7.72,1.51,1.27,2.25.48-2.32.19-4.67.25-7s0-4.77,0-7.23h1.93v18.3c-1.89.36-2.16.18-3.21-1.55-1.47-2.4-3.05-4.74-4.54-7.14-1-1.56-1.83-3.19-2.77-4.77-.27-.47-.62-.9-1-1.49Z" transform="translate(-14.01 -4.75)"/><path class="cls-1" d="M291.86,182.52V164h5.45a6.24,6.24,0,0,1,3.86,1.11c2.05,1.46,2.1,5.94-1.26,7.22a15.08,15.08,0,0,0,1.42,1.07c1.58.9,1.94,2.37,1.93,4,0,3.5-2.09,4.63-4.71,5.06A42.45,42.45,0,0,1,291.86,182.52Zm4.24-9.05c-1.76,0-2.1.33-2.11,1.74s0,2.95,0,4.43a1.3,1.3,0,0,0,1.37,1.45,6.46,6.46,0,0,0,4.55-1.32,3,3,0,0,0,.72-4.05C299.49,173.68,297.51,174,296.1,173.47ZM294,168.7h0c0,.64,0,1.28,0,1.92,0,.91.43,1.54,1.48,1.35a14.81,14.81,0,0,0,3.4-.73,2.89,2.89,0,0,0,1.14-4,4.59,4.59,0,0,0-3.54-1.88c-1.95-.21-2.59.28-2.5,2.39C294,168.07,294,168.39,294,168.7Z" transform="translate(-14.01 -4.75)"/><path class="cls-1" d="M412.26,173.6a7.22,7.22,0,0,1,2.89,5.16,30.79,30.79,0,0,0,1,3.68h-2.46c-.43-1.78-.87-3.61-1.32-5.43a3.1,3.1,0,0,0-3.07-2.44c-.91,0-1.82,0-2.82,0v7.89h-2.07a12.4,12.4,0,0,1-.12-1.24c0-5.27,0-10.54,0-15.81,0-1,.24-1.45,1.33-1.4,1.79.07,3.59.08,5.37,0,2.64-.1,5.1,2.87,4.71,5.41a4.9,4.9,0,0,1-2.83,3.81C412.72,173.32,412.57,173.42,412.26,173.6Zm-5.77-.95c1.77-.1,3.39.42,5-.55,1.48-.86,2.32-3.35,1.3-4.78a5.28,5.28,0,0,0-5.33-1.88,1.52,1.52,0,0,0-1,1C406.44,168.48,406.49,170.5,406.49,172.65Z" transform="translate(-14.01 -4.75)"/><path class="cls-1" d="M351.92,166.27a17,17,0,0,0-3.39-.65,11.55,11.55,0,0,0-4.06.63,6.32,6.32,0,0,0-3.9,4.28,8.49,8.49,0,0,0,.65,6.93,9,9,0,0,0,3.43,3,1.1,1.1,0,0,0,.56.16h5.5v-6h-3.5c-.36-1.44-.09-1.84,1.18-1.85s2.24,0,3.36,0c.77,0,1.15.27,1.15,1,0,2.44,0,4.87,0,7.31,0,.31-.47.74-.82.89-2,.87-4.13.68-6.23.63a8.73,8.73,0,0,1-6.05-2.79,6.67,6.67,0,0,1-1.42-2.76c-1.42-4.69-.39-9.21,4.24-12,1.78-1.09,3.84-1.12,5.88-1.09.71,0,1.43.11,2.15.15C352.16,164.14,352.39,164.47,351.92,166.27Z" transform="translate(-14.01 -4.75)"/><path class="cls-1" d="M430.37,164.15c.32-.06.44-.1.55-.11,1.91-.11,1.92-.1,1.92,1.84,0,2.67,0,5.35,0,8a12.59,12.59,0,0,1-1.38,6.26,4.8,4.8,0,0,1-2.83,2.18c-2.09.5-4.3.82-6.38-.33a6,6,0,0,1-3-5.32c-.22-4.14-.07-8.29-.07-12.54l.91-.12c1.1-.15,1.53.23,1.53,1.43,0,4-.1,8,.15,12a4,4,0,0,0,4.93,3.73,5,5,0,0,0,3.69-5.24c0-3.31,0-6.63,0-9.94Z" transform="translate(-14.01 -4.75)"/><path class="cls-1" d="M370.93,182.38c-2.3.38-2.45.2-2.94-1.76a41.07,41.07,0,0,0-1.43-4c-2,0-4.1,0-6.16,0a1.29,1.29,0,0,0-.89.79c-.54,1.67-1,3.36-1.48,5.07h-2.36c.4-1.41.76-2.77,1.19-4.1s1.05-2.84,1.54-4.27c.38-1.09.7-2.21,1.08-3.3.52-1.51,1.07-3,1.62-4.51.06-.18.2-.35.25-.53.48-1.76.49-1.65,2.27-1.78,1.13-.09,1.38.7,1.62,1.34.58,1.53.95,3.14,1.47,4.69s1.17,3.09,1.71,4.65,1.06,3.33,1.59,5C370.29,180.54,370.6,181.41,370.93,182.38Zm-7.59-15.73-.35.13c-.81,2.58-1.62,5.15-2.45,7.81h5.51C365.11,171.86,364.23,169.26,363.34,166.65Z" transform="translate(-14.01 -4.75)"/><path class="cls-1" d="M388.55,164.19c0,3.89,0,7.72,0,11.55a5.62,5.62,0,0,0,1.68,4.32,3.81,3.81,0,0,0,6.21-.91,8.49,8.49,0,0,0,.8-3.74c.1-3.11,0-6.22,0-9.34,0-2.19.1-2.27,2.49-1.9V167c0,2.91,0,5.83,0,8.74a8.3,8.3,0,0,1-1.67,4.9c-1.45,2-3.59,2.13-5.77,2.11a5.27,5.27,0,0,1-4.59-2.1,6,6,0,0,1-1-1.85,18.78,18.78,0,0,1-.59-3.86c-.08-3,0-6,0-9C386.08,163.88,386.21,163.78,388.55,164.19Z" transform="translate(-14.01 -4.75)"/><path d="M455.37,129.64v1.61c0,6.26,0,12.53,0,18.8,0,1.2.33,1.6,1.55,1.57,2.63-.08,5.27,0,7.91,0,.87,0,1.2.24,1.18,1.15s-.26,1.27-1.24,1.25c-3.59,0-7.19,0-10.78,0-.94,0-1.28-.33-1.28-1.25q0-10.95,0-21.92c0-.87.29-1.26,1.18-1.17C454.29,129.68,454.73,129.64,455.37,129.64Z" transform="translate(-14.01 -4.75)"/><path d="M483.1,151.59c0,.37.08.56.09.75.07,1.61.06,1.62-1.51,1.62-3.47,0-6.95,0-10.42,0-.94,0-1.27-.29-1.26-1.22q0-11,0-22c0-.83.27-1.18,1.1-1.09.47.05.94.05,1.53.07V150c0,1.57,0,1.58,1.61,1.58Z" transform="translate(-14.01 -4.75)"/><path class="cls-1" d="M307.05,182.47c0-.43-.12-.86-.12-1.29,0-5.22,0-10.45,0-15.68,0-1.11.27-1.54,1.47-1.5,2.82.09,5.65,0,8.54,0V166h-7.8c0,1.94,0,3.72,0,5.49,0,.2.64.51,1,.52,2,0,4.06,0,6.26,0,0,.67-.08,1.23-.13,1.93h-7.11v6.67h7.92l.1,1.89Z" transform="translate(-14.01 -4.75)"/><path d="M254.17,129.84a2.54,2.54,0,0,1,.46-.17c2.17-.22,2.22-.17,2.22,2v20.7c0,1.51-.76,2.08-2.18,1.53-.27-.1-.47-.75-.47-1.15,0-4.54,0-9.09,0-13.64v-9.26Z" transform="translate(-14.01 -4.75)"/><path d="M345.5,129.79v22.67c0,1.42-.74,2-2.11,1.44a1.21,1.21,0,0,1-.5-.92c-.06-1.15,0-2.31,0-3.47V131.78C342.86,129.39,342.87,129.39,345.5,129.79Z" transform="translate(-14.01 -4.75)"/><path class="cls-1" d="M376.55,180.65h6.68c.69,0,1.26,0,1.25,1s-.62.95-1.28.95h-9.06V164.11c.37,0,.72,0,1.06-.08,1.05-.13,1.38.34,1.37,1.38,0,4.51,0,9,0,13.54Z" transform="translate(-14.01 -4.75)"/><path class="cls-2" d="M251.18,36.44c4.21,12.21,8.41,24.42,12.66,36.8h-26.3a6.22,6.22,0,0,1,.21-1c.58-1.57,1.19-3.14,1.79-4.7q1.22-3.14,2.42-6.27c.29-.76.52-1.55.77-2.32.71-2.17,1.37-4.35,2.12-6.5s1.6-4.22,2.36-6.35,1.47-4.34,2.24-6.5c.4-1.1.9-2.16,1.35-3.24Z" transform="translate(-14.01 -4.75)"/><path class="cls-2" d="M445.22,141.59a11.66,11.66,0,0,1-3.06,8.21c-2.51,2.58-5.76,3.27-9.09,1a9.29,9.29,0,0,1-3.58-5.39,11.26,11.26,0,0,1-.52-4.68c.41-3.18,1.25-6.2,4.08-8.24,1.49-1.08,5.07-1.22,6.74-.54a8.06,8.06,0,0,1,4.33,4.61A26.12,26.12,0,0,1,445.22,141.59Z" transform="translate(-14.01 -4.75)"/><path class="cls-2" d="M325.65,136.4c0-1.12,0-2.23,0-3.35s.48-1.56,1.54-1.54,2.08,0,3.11,0c3.49.1,5.32,2.9,4.6,6.05-.3,1.3-2.14,3.4-4,3.37-1.35,0-2.71,0-4.07,0-.82,0-1.24-.32-1.19-1.23C325.7,138.64,325.65,137.52,325.65,136.4Z" transform="translate(-14.01 -4.75)"/><path class="cls-2" d="M296.1,173.47c1.41.48,3.39.21,4.53,2.25a3,3,0,0,1-.72,4.05,6.46,6.46,0,0,1-4.55,1.32,1.3,1.3,0,0,1-1.37-1.45c0-1.48,0-2.95,0-4.43S294.34,173.48,296.1,173.47Z" transform="translate(-14.01 -4.75)"/><path class="cls-2" d="M294,168.7c0-.31,0-.63,0-.95-.09-2.11.55-2.6,2.5-2.39a4.59,4.59,0,0,1,3.54,1.88,2.89,2.89,0,0,1-1.14,4,14.81,14.81,0,0,1-3.4.73c-1.05.19-1.44-.44-1.48-1.35,0-.64,0-1.28,0-1.92Z" transform="translate(-14.01 -4.75)"/><path class="cls-2" d="M406.49,172.65c0-2.15-.05-4.17,0-6.18a1.52,1.52,0,0,1,1-1,5.28,5.28,0,0,1,5.33,1.88c1,1.43.18,3.92-1.3,4.78C409.88,173.07,408.26,172.55,406.49,172.65Z" transform="translate(-14.01 -4.75)"/><path class="cls-2" d="M363.34,166.65c.89,2.61,1.77,5.21,2.71,7.94h-5.51c.83-2.66,1.64-5.23,2.45-7.81Z" transform="translate(-14.01 -4.75)"/><path d="M74.08,153H15.79C14,153,14,153,14,151.26V126.57c0-.36,0-.72,0-1.08.07-.69.37-1.12,1.16-1a4.33,4.33,0,0,0,.72,0H132.27c1.86,0,1.87,0,1.87,1.84,0,8.39,0,16.78,0,25.17,0,1.22-.35,1.54-1.56,1.54Q103.34,153,74.08,153Zm.78-12c-.61-1.58-1.12-2.87-1.61-4.17s-1-2.52-1.4-3.8c-.53-1.59-1-3.22-1.55-4.8a1.67,1.67,0,0,0-1.76-1.12c-3.35,0-6.71,0-10.07,0-1.21,0-1.68.41-1.68,1.62,0,6.78,0,13.57,0,20.36,0,.93.43,1.27,1.33,1.25,1.84,0,3.68-.07,5.51,0,1.17,0,1.61-.28,1.58-1.54-.07-4.27,0-8.55,0-12.82a14.57,14.57,0,0,1,.2-1.6,11.57,11.57,0,0,1,1.1,2.33c.6,1.67,1.16,3.35,1.74,5s1.06,3.08,1.61,4.61c.39,1.11.75,2.23,1.22,3.31a1.28,1.28,0,0,0,.92.62q2.94.09,5.87,0a1.4,1.4,0,0,0,1-.61c.58-1.39,1.06-2.83,1.55-4.26.33-1,.58-2,.92-3q.86-2.43,1.77-4.85c.47-1.22,1-2.42,1.49-3.62l.32.1v1.91c0,4.39,0,8.79,0,13.18,0,.88.28,1.19,1.17,1.16,2,0,3.91,0,5.87,0,.66,0,1-.17,1-.95,0-7,0-14,0-21,0-.84-.41-1.29-1.21-1.29q-5.34,0-10.67,0a1.37,1.37,0,0,0-1.41,1.18c-.4,1.42-1,2.8-1.48,4.18q-.89,2.35-1.8,4.69C75.91,138.43,75.42,139.63,74.86,141Zm-21.39,9.31a7.39,7.39,0,0,0-.38-1.42c-1-1.9-2.07-3.77-3.05-5.68-1.24-2.39-2.4-4.83-3.63-7.23s-2.54-4.87-3.81-7.3a2.44,2.44,0,0,0-2.4-1.58c-2.47.09-5,.1-7.42,0a2.68,2.68,0,0,0-2.56,1.54c-.37.62-.56,1.34-.9,2-1,1.94-2.06,3.85-3.06,5.79-.76,1.47-1.46,3-2.21,4.47s-1.53,2.85-2.29,4.27-1.52,2.78-2.23,4.19a2.68,2.68,0,0,0,0,1h7.86c1.88,0,2.3-.32,2.69-2.15a1.54,1.54,0,0,1,1.73-1.38c2.72,0,5.44,0,8.15,0,2.1,0,2.05,0,2.82,2,.22.56.73,1.4,1.14,1.42C47,150.4,50.11,150.34,53.47,150.34Zm75.33-16.1a3.67,3.67,0,0,0-.42-1.08c-.85-1-1.73-2-2.64-2.94-2.08-2.21-4.9-2.74-7.71-3.07a41.64,41.64,0,0,0-6.22-.07,17.18,17.18,0,0,0-8.62,2.45,9.55,9.55,0,0,0-4.78,6.35c-.92,5,0,9.17,4.43,12.23a10.49,10.49,0,0,0,6,2.24,2.83,2.83,0,0,1,.7.11c3,.85,5.94.49,8.91.31a9.79,9.79,0,0,0,3.23-.66,18,18,0,0,0,4.48-2.55,14.89,14.89,0,0,0,2.56-3.64,1.1,1.1,0,0,0-.36-1,20.93,20.93,0,0,0-2.61-.71,37.15,37.15,0,0,1-3.68-.86c-1.27-.45-1.43-.32-2.08.82a6.24,6.24,0,0,1-2.45,2.69,7.7,7.7,0,0,1-6,.26c-2-.74-3.29-2.08-3.32-4.16,0-1.43,0-2.87,0-4.31,0-1.11,1.54-3,2.52-3.54a8.12,8.12,0,0,1,4.62-.66,5.08,5.08,0,0,1,4.23,2.3c.35.56.78,1.18,1.7.86a13.89,13.89,0,0,1,2.39-.58C125.34,134.75,127,134.53,128.8,134.24Z" transform="translate(-14.01 -4.75)"/><path d="M113.76,75.49a20.85,20.85,0,0,0-.24,2.23q0,13.36,0,26.72v1.25c-.13.1-.2.2-.25.19l-5.16-1a7.79,7.79,0,0,0-.92-.24q-6.14-.37-12.29-.71a2.74,2.74,0,0,0-1.07,0c-1.51.53-2.73-.28-4-.8A21,21,0,0,0,87,102c-1-.24-1.26-.75-1.24-1.69,0-2.51,0-5,0-7.55s-3.2-4.06-5.47-3c-1.88.88-2.2,2.42-2.36,4.11a24.86,24.86,0,0,0,0,3.23c0,.85-.35,1.08-1.1.87a4.92,4.92,0,0,0-1-.32,7.08,7.08,0,0,0-2.83,0c-1.8.69-2.28.49-2.28-1.44,0-1-.05-2.08,0-3.11a3.58,3.58,0,0,0-2.54-3.59,4.27,4.27,0,0,0-4.22,1.22,2.94,2.94,0,0,0-.8,2.2c0,2.4,0,4.79,0,7.19A1.73,1.73,0,0,1,61.74,102c-1.4.51-2.68,1.36-4.09,1.84a10.32,10.32,0,0,1-2.62.12l-8.1.49c-.52,0-1,0-1.55.1-2.56.25-5.13.48-7.68.8a12.76,12.76,0,0,0-2.34.82v-1.66q0-12.94,0-25.88c0-1-.16-2-.26-3.17L43.16,73l.24,0c2.36-.28,4.71-.59,7.07-.82,3-.29,6.05-.38,9-.8,6.88-1,13.79-.34,20.69-.5,2.19-.06,4.4,0,6.59.15,3,.17,6,.44,9,.7a50.79,50.79,0,0,1,5.09.57c2.62.5,5.21,1.13,7.8,1.78C110.46,74.48,112.16,75,113.76,75.49Zm-28,10.76c0-3.54,0-6.77,0-10,0-1.91-2.77-3.54-4.22-3.29a4.45,4.45,0,0,0-3.64,4.26c0,2.55,0,5.11,0,7.66,0,1.05.42,1.32,1.34,1.31,1.23,0,2.47,0,3.7.06C83.81,86.26,84.72,86.25,85.73,86.25ZM63.1,80.69h0c0,1.44,0,2.87,0,4.31s.32,1.58,1.64,1.5c1.67-.1,3.33-.24,5-.3.67,0,.92-.27.92-.92,0-3,0-6,0-9,0-2-2.2-3.33-3.86-3.34a3.82,3.82,0,0,0-3.67,3.42C63.08,77.82,63.1,79.25,63.1,80.69ZM93,97.5c0,1.44,0,2.88,0,4.31,0,1,.4,1.49,1.42,1.48,1.24,0,2.48,0,3.72,0A1.17,1.17,0,0,0,99.5,102c-.19-3.34.66-6.75-.55-10-.57-1.55-2.72-2.64-4.21-1.63A3.87,3.87,0,0,0,93,93.55C93,94.86,93,96.18,93,97.5Zm-43,5.79c1.69,0,3.2-.07,4.71,0,1,.06,1.31-.33,1.3-1.29,0-3,0-6.06,0-9.09A2.88,2.88,0,0,0,53.6,90c-1.42-.11-3.55,1.31-3.58,2.61C49.93,96.11,50,99.61,50,103.29ZM99.54,82c0-1.08,0-2.16,0-3.24a5.5,5.5,0,0,0-1.83-4.24,3.14,3.14,0,0,0-3.54.12A4,4,0,0,0,93,78c.19,2.57.38,5.14.49,7.71,0,.84.35,1.09,1.16,1.08A21.64,21.64,0,0,1,97.9,87c1.06.14,1.61-.2,1.63-1.29S99.54,83.21,99.54,82Zm-43.6-1h0v-2.4a10.49,10.49,0,0,0,0-2.38,3.35,3.35,0,0,0-1-2c-1.62-1.06-4.81.68-4.88,2.65-.1,3.15-.06,6.3,0,9.45a1.21,1.21,0,0,0,.86.78c1.3,0,2.6-.25,3.91-.3.84,0,1.23-.27,1.19-1.18C55.89,84.09,55.94,82.53,55.94,81Zm48.93,22.92c.85,0,1.56.12,2.26.1s1.09-.31,1.07-1.11c-.1-3.44.35-6.91-.67-10.27a2,2,0,0,0-1.06-1.21c-.31-.11-.94.34-1.26.69a2,2,0,0,0-.31,1.21c0,2.23,0,4.47,0,6.7ZM42,103.79c3.1.64,3.17-.13,3.14-2.18s.09-4.24,0-6.35a17.76,17.76,0,0,0-.59-3.37,1,1,0,0,0-.67-.53c-1-.23-1.75.59-1.84,2.07s0,3.2-.05,4.79C42,100.09,42,102,42,103.79Zm62.9-16.34a9.64,9.64,0,0,0,1.8.08c.29,0,.77-.46.75-.68-.16-3.54.73-7.15-.62-10.6-.14-.34-.7-.81-1-.75s-.93.59-.93.92C104.89,80,104.91,83.67,104.91,87.45ZM44.45,75.19c-.58.39-1.23.59-1.42,1a6.16,6.16,0,0,0-.53,2.39c0,2.64,0,5.27,0,7.9,0,.6,0,1.16.88,1.08s1.77.06,1.71-1.13C44.92,82.84,45.74,79.2,44.45,75.19ZM110.8,92.06l-.38.09a7.15,7.15,0,0,0-.22,1.21c0,3.43,0,6.86-.07,10.3,0,1.06.57,1,1.36.83a2,2,0,0,0,.11-.46c0-3.51,0-7-.07-10.54C111.52,93,111.05,92.54,110.8,92.06Zm-72.88.17-.46.17v12.2l1.23-.07c0-3.83,0-7.58,0-11.32C38.65,92.88,38.17,92.56,37.92,92.23Zm.64-15.85-.48-.1a9.32,9.32,0,0,0-.67,2.21c-.09,2.4,0,4.79,0,7.19v2.46L38.56,88Zm72.39,0-.62,0V88c.84.24,1.22,0,1.21-1,0-2.39.07-4.79,0-7.17A26.16,26.16,0,0,0,111,76.36Z" transform="translate(-14.01 -4.75)"/><path d="M14.14,171.33V155H134.06v16.38Zm115.24-13.17c-.88,0-1.67,0-2.46,0s-1,.26-1,1c0,1,0,2,0,3a.88.88,0,0,1-.42.6c-.12.07-.46-.06-.58-.21-.52-.63-1-1.33-1.49-2-1.2-1.49-2.41-2.9-4.7-2.42-.82.17-1.2.31-1.17,1.21,0,2.11,0,4.22,0,6.34,0,2.71-.16,2.37,2.48,2.45,1.07,0,1.52-.29,1.43-1.42s0-2.14,0-3.22l.38-.06a16.29,16.29,0,0,1,2.21,2.43,4.13,4.13,0,0,0,5.34,2Zm-98,9.82a22.82,22.82,0,0,0,8.3-.42c3.15-1.14,3.5-4.12,2.6-6.54a3.78,3.78,0,0,0-3-2.73c-2.58-.19-5.17-.06-7.85-.06Zm77.83-9.91c-2.93.18-3.17-.1-5.19,1.84-1.62,1.55-1.44,5.56.53,6.94,2.6,1.8,5.37,1.68,8.21.72,3.38-1.16,3.46-6,1.61-8C112.94,158.11,111.17,158.11,109.22,158.07Zm-90.31.09v9.93h9.46c.63,0,.93-.29,1-.94.05-1.09-.39-1.61-1.54-1.62-1.62,0-3.25,0-4.84,0-.24-1.78-.13-1.91,1.45-1.91h4.13c.28-1.51,0-1.91-1.26-2s-2.24,0-3.36,0-1.24-.48-.93-1.45c1.8,0,3.56.05,5.31,0,.33,0,.8-.55.91-.93.18-.63-.18-1.08-.9-1.08Zm25.71.16a52.86,52.86,0,0,1,0,5.49c-.24,2.32,2.18,4.38,4.2,4.32a35.82,35.82,0,0,1,3.59,0c1.74.12,4-2,4.08-4,.06-1.67,0-3.35,0-5a1.22,1.22,0,0,0-.77-.89,25.57,25.57,0,0,0-3.06-.05c0,2.15,0,4.13,0,6.12,0,.8-1.64,2-2.35,1.73-1.62-.55-1.76-.76-1.77-2.57,0-.68,0-1.36,0-2,0-3.51,0-3.51-3.55-3.21Zm39.53,9.77c-.41-1-.7-1.75-1-2.47-.94-2.2-1.86-4.4-2.84-6.57-.16-.36-.58-.81-.9-.83-1.38-.09-2.77,0-3.9,0L71,168.1c1.18,0,2,0,2.92,0s1.2-.22,1.32-1c0-.3.43-.77.69-.79a25,25,0,0,1,3.35,0c.2,0,.37.41.57.61.42.41.79,1,1.28,1.17A14.9,14.9,0,0,0,84.15,168.09Zm-13.92-3a7.74,7.74,0,0,0-1.38-.77c-.8-.24-1.69-.48-2.23.47A2.28,2.28,0,0,1,64.31,166c-1.42-.18-1.85-.9-1.9-2.38a3.55,3.55,0,0,1,.07-1.53,3.26,3.26,0,0,1,1.23-1.67,1.94,1.94,0,0,1,2.51.4,1.66,1.66,0,0,0,2,.72,9.79,9.79,0,0,0,1.69-.83c-.39-.6-.64-1.46-1.19-1.74a9,9,0,0,0-7.86-.17c-1.87.8-2.42,2.51-2.41,4.47a4.78,4.78,0,0,0,2.67,4.3c1.52.9,3.16.56,4.77.59C68,168.17,69.34,167,70.23,165.11ZM91.06,168c0-1.85.09-3.64,0-5.41-.12-1.95.48-2.16,2.18-2.17,2,0,2.13-.16,1.69-2.2-.36,0-.75-.07-1.14-.07-3,0-6,0-9,0-.78,0-1.3.07-1.29,1.06s.43,1.28,1.32,1.23a9.45,9.45,0,0,1,1.19,0c1,.05,1.55.51,1.51,1.57s0,2.07,0,3.11C87.63,168.48,86.77,168.19,91.06,168Zm6-9.84v9.93c.87,0,1.62,0,2.37,0a1.12,1.12,0,0,0,1.34-1.27c0-2.59,0-5.18,0-7.77a1.24,1.24,0,0,0-.83-.86A22.62,22.62,0,0,0,97.06,158.17Z" transform="translate(-14.01 -4.75)"/><path d="M114.14,71.11a13.69,13.69,0,0,0-1.94-1c-1.39-.48-2.8-.9-4.22-1.29-1.09-.3-2.2-.54-3.3-.77a44.93,44.93,0,0,0-5.34-1c-4.52-.38-9-.67-13.59-.84-6.13-.22-12.26-.4-18.4-.41-3.77,0-7.54.31-11.31.55-2.18.14-4.35.37-6.51.67-2.55.36-5.11.71-7.6,1.3-2,.48-4,1.31-6,2-.54.17-1,1.21-1.54.51a2.66,2.66,0,0,1-.18-2c.5-2,1.11-4.09,1.76-6.1a62.48,62.48,0,0,1,2.15-6.17A41.48,41.48,0,0,1,41,51.26a40.16,40.16,0,0,1,9.14-10.42A58.13,58.13,0,0,1,57,36.4,36.83,36.83,0,0,1,62,34c1.14-.46,2.45-.48,3.61-.9,1.32-.47,2.9-.26,3.93-1.5a1.21,1.21,0,0,1,.86-.31c2.68,0,5.35,0,8,0,.16,0,.41,0,.46.08.69,1.15,2,1,3,1.53a3.37,3.37,0,0,0,.78.24,44.33,44.33,0,0,1,5.4,1.48,53.11,53.11,0,0,1,5.86,3,36.92,36.92,0,0,1,10.17,8.75A44.37,44.37,0,0,1,110,55.08a56.52,56.52,0,0,1,2.86,7.54c.72,2.22,1.19,4.52,1.81,6.78C114.91,70.26,114.73,70.88,114.14,71.11ZM73,33.33,72.88,33a5.66,5.66,0,0,0-1.68.58c-2.93,2.11-4.67,5.14-6,8.39-.87,2.14-1.46,4.39-2.19,6.59a34,34,0,0,0-1.87,8.87c0,.43-.16.85-.21,1.29-.22,2-.42,4.1-.64,6.16,2.15,0,3.94,0,5.73,0s1.73-.1,1.82-1.86c.21-4,.47-7.93.71-11.9a7.94,7.94,0,0,1,.13-.83c.37-2.12.81-4.24,1.09-6.38A26.78,26.78,0,0,1,73,33.33Zm3-.42-.22.46a10.57,10.57,0,0,1,1.15,2c.73,2.23,1.46,4.46,2,6.73a78.23,78.23,0,0,1,1.37,8.17c.38,3.35.55,6.73.77,10.09a31.84,31.84,0,0,1,0,3.24c0,.94.39,1.28,1.27,1.29,1.72,0,3.44.05,5.16.13.72,0,.92-.27.86-.92-.27-2.91-.53-5.83-.8-8.74a1,1,0,0,0,0-.24c-.37-1.55-.76-3.11-1.13-4.66a31.08,31.08,0,0,0-.85-3.64c-.73-2.05-1.67-4-2.44-6a18.63,18.63,0,0,0-4.84-6.87A7.09,7.09,0,0,0,76.06,32.91Zm3.25.22-.17.32A21.13,21.13,0,0,1,81,34.82,27.4,27.4,0,0,1,86,40.19a39.12,39.12,0,0,1,3.75,7.31c.55,1.45,1,3,1.41,4.45.59,1.94,1.31,3.87,1.72,5.85.44,2.16.55,4.38.89,6.56.06.41.51,1,.84,1.07a38.17,38.17,0,0,0,4.54.29c.65,0,1.12-.27.92-1.14-.4-1.67-.7-3.37-1-5a22.69,22.69,0,0,0-.83-3.69C97,53,95.82,50.13,94.41,47.39a53.85,53.85,0,0,0-3.86-6.09,24.36,24.36,0,0,0-7.84-6.75A24.85,24.85,0,0,0,79.31,33.13ZM49,65.37c.15.08.37.28.58.27,1.59,0,3.19,0,4.77-.23.34,0,.8-.69.87-1.11.53-3,.92-6,1.47-9A30.1,30.1,0,0,1,58.05,50c.91-2.35,2.1-4.59,3.15-6.9a20.75,20.75,0,0,1,4.93-6.66c1-.88,2-1.68,3-2.52L69,33.56a13.75,13.75,0,0,0-2.23.81,25.13,25.13,0,0,0-7,5.3,37.16,37.16,0,0,0-5.65,8.27c-.81,1.7-1.51,3.45-2.17,5.21-.52,1.39-1,2.82-1.34,4.25-.48,1.81-.88,3.65-1.27,5.48C49.11,63.64,49.06,64.43,49,65.37ZM63,35.29c-.88-.53-1.51,0-2.22.38C59,36.76,57,37.61,55.29,38.84a34.19,34.19,0,0,0-9,9.27c-1,1.63-2.13,3.23-3,5a45.1,45.1,0,0,0-2,5,42.77,42.77,0,0,0-1.33,4.11c-.42,1.63-.71,3.3-1.11,5.21.69-.06,1.29-.08,1.88-.17.38-.06.74-.28,1.13-.33,1.72-.21,1.94-.54,2.12-2.32a27.19,27.19,0,0,1,.87-5.1,42.42,42.42,0,0,1,2.45-6.25,65.92,65.92,0,0,1,4.06-7.37,30.71,30.71,0,0,1,7.37-7.8C60.05,37.09,61.52,36.25,63,35.29Zm47.08,32.17c-.23-1.45-.36-2.67-.65-3.86s-.74-2.53-1.13-3.79a23.54,23.54,0,0,0-.9-2.92c-.75-1.68-1.66-3.27-2.42-4.94a35,35,0,0,0-5.79-8.21,24.94,24.94,0,0,0-6.69-5.56c-1.74-1-3.41-2-5.15-3-.27-.15-.72,0-1.38.11,1.63,1.08,3,1.86,4.23,2.83a34.56,34.56,0,0,1,8.87,10.08,43.44,43.44,0,0,1,4,8.64,42.2,42.2,0,0,1,2,8,3.06,3.06,0,0,0,1,2,5.57,5.57,0,0,0,2.36.63A10.58,10.58,0,0,0,110.07,67.46Z" transform="translate(-14.01 -4.75)"/><path d="M133.23,122.91H15.2l-.08-.25c1.62-.68,3.24-1.38,4.88-2,2.76-1.11,5.52-2.23,8.3-3.29,3.12-1.2,6.28-2.3,9.38-3.53,2.48-1,4.9-2.14,7.37-3.13,1.43-.57,2.93-.94,4.37-1.48,1.93-.71,3.82-1.5,5.74-2.25s4.09-1.57,6.11-2.39c1.4-.56,2.75-1.22,4.15-1.78s2.63-.92,3.93-1.42c1.46-.56,2.89-1.2,4.35-1.75a1.77,1.77,0,0,1,1.18,0c2,.76,3.87,1.6,5.82,2.38s4,1.57,6,2.35l6.06,2.34,5.5,2.15c1.59.61,3.2,1.18,4.79,1.8,1.23.47,2.45,1,3.68,1.46,2,.81,4,1.6,6,2.43,1.46.61,2.88,1.3,4.35,1.88,1.87.74,3.77,1.39,5.66,2.1s3.94,1.45,5.89,2.23c1.54.61,3.05,1.3,4.57,2Zm-64-12.37c-.43.33-1.13.59-1.22,1a1.75,1.75,0,0,0,.57,1.52c.34.21.73,1.08,1.56.33.46-.41,1.09-.53,1-1.34s-.76-.86-1.36-1c-.23-.07-.4-.32-.6-.48.84.27,2-.38,2.51.9.38,1.68.21,2.21-1.11,2.81a2.33,2.33,0,0,1-3-.47,3.17,3.17,0,0,1-.78-2.37,4.08,4.08,0,0,1,4.73-2.7,13,13,0,0,1,1.45.41c-.21-.44-.33-.72-.48-1s-.24-.17-.35-.26c-1.72-1.43-4.21-.53-5.56.63a5.09,5.09,0,0,1-1.63.7,9.77,9.77,0,0,1-1.1.25,13.12,13.12,0,0,0,1.15,1c.13.09.4,0,.48,0a6.75,6.75,0,0,0-.08,2.35,20.43,20.43,0,0,0,1.6,3.12c-.4.26-1,.43-1.16.79a3.26,3.26,0,0,1-4.11,1.78,1.49,1.49,0,0,1-1.15-1.77c.09-.34.56-.59.86-.88l.3.3-.46.92c.71.59,1.18.38,1.58-.3a2.42,2.42,0,0,1,.72-.83c1.61-1,1.81-2.78.36-3.91-1.74-1.36-3.47-.84-5.11.27l-1.31-1.72-.44.15.63,6.52-.3.12c-.24-.41-.65-.81-.67-1.22a3.89,3.89,0,0,0-1.53-2.64c-1.27-1.25-4.37-1.49-5.38.2-.71,1.18-1.27,2.44-1.9,3.67-.39.76-.82,1.45-2,.93l.72-1.56c-1.43-.15-1.43-.14-1.56,2h-6v.39c1.75,0,3.5-.12,5.23,0,1.35.12,2.62.29,3.85-.48.22-.14.82.06,1.07.29,1.21,1.12,1.51,1.18,3.14.37a3.09,3.09,0,0,1,.46-.13c1.73-.4,1.95-.75,1.64-2.68a1.82,1.82,0,0,0-2.44-1.41c-.35.08-.85.54-.87.85a1.79,1.79,0,0,0,.53,1.35c.94.77,1.42-.2,2.22-1,0,.75.08,1.22-.1,1.51a2.41,2.41,0,0,1-3.13.42c-.79-.69-1.07-2.81-.46-3.43a4.07,4.07,0,0,1,3.8-.65c.91.55,2.09,2.89,1.76,3.75a10.18,10.18,0,0,1-1.17,1.83c.17.06.38.19.44.15.68-.54,1.35-1.11,1.89-1.56,1.44.63,2.83,1.57,4.34,1.8a8.64,8.64,0,0,0,3.91-.72c1.62-.56,1.47-2.2,1.79-3.52,1.12,0,2.24,0,3.35.11s1.65.79,1.22,2l-.87-.62-.37.15c.13.5.12,1.21.44,1.44s1-.1,1.52-.19l1.26.48.28-.32L72,115.61l1.67-3.24c0,1.35-.07,2.45,0,3.53,0,.33.55.61.84.91.21-.29.55-.56.58-.86a19.43,19.43,0,0,0,0-2.16c0-.42.06-.84.11-1.42l1.53,3.25-1.75,3.31.34.29,1.41-.65c.45.34,1.22.61,1.33.44a4.76,4.76,0,0,0,.39-1.6l-.36-.1-1,.7c-.2-.75-.45-1.42.43-1.64,1.08-.26,2.2-.37,3.3-.57.62-.12.84.12.94.73a3.71,3.71,0,0,0,2.3,3.2c2.16.66,4.41.81,6.36-.84a7.61,7.61,0,0,1,1.38-.73c1.11,1.44,1.48,1.65,2.51,1.4-1.31-1.07-1.82-2.14-.87-3.8.81-1.42,1.76-2.19,3.61-1.86,1.41.25,1.91,1.1,1.78,2.95a1.63,1.63,0,0,1-1.63,1.68c-1.38.13-1.82-.12-2.2-1.41a4,4,0,0,0,1.28.3,2.07,2.07,0,0,0,1.32-.61c.59-.84.08-1.69-1-1.79-1.2-.11-2.29.37-2.33,1.27s-.65,2,.64,2.61a16.35,16.35,0,0,0,2.36.89c.4.11,1.06.13,1.26-.11.87-1,1.75-1.5,3-.56.08.06.24,0,.35,0a6.73,6.73,0,0,0,3.09,0,36.35,36.35,0,0,1,4.43,0c.35,0,.71,0,1.06-.06l0-.44h-6.93c.09-2-.08-2.17-1.47-1.85l.77,1.5c-1.39.28-2.31-.58-2.61-2.25a4.12,4.12,0,0,0-3.35-3.5,4.54,4.54,0,0,0-4.87,3.07,16.93,16.93,0,0,1-.67,1.66l-.44-.13a25.89,25.89,0,0,0,.58-6.49l-.34,0L90,112.1a9.85,9.85,0,0,1-1-.43,3.5,3.5,0,0,0-4.1.25,9.07,9.07,0,0,0-1.12,1.26l0,0-.44-3a.6.6,0,0,0,.18,0,11.13,11.13,0,0,0,1.28-.39c.08,0,.07-.33.1-.5-.33,0-.67-.06-1-.13a5.63,5.63,0,0,1-1.43-.42c-.71-.4-1.31-1-2-1.37a3.22,3.22,0,0,0-4.5,1.67H77.1v2.22l-1.33.59.42-1.83-1-.36c0-.53-.19-1.16,0-1.36,1-.93.28-2.08.48-3.09.08-.37-.61-1-1-1.35-.13-.12-.62,0-.84.17-.59.45-1,3.14-.67,3.82s.45,1.23.68,1.87l-1.13.29.3,1.6-1.37-.22.11-2.07c-.87.2-1.55.33-2.2.55C69.4,110,69.31,110.32,69.18,110.54Z" transform="translate(-14.01 -4.75)"/><path d="M68.46,21.91a6.94,6.94,0,0,0,2.08-1.34,6.9,6.9,0,0,0,.66-2.41l-.41-.1L70,19.55l-.5,1-.61-1-.81,1.06a2,2,0,0,1,.62-2.52,12.6,12.6,0,0,1,2.85-2c1.48-.75,1.78-1.3,1.14-3a6.13,6.13,0,0,1-.2-.88c1.07-.86,2.06-1.27,3.3-.34.53.39.55.64.34,1.14a5.25,5.25,0,0,0-.33,1.22c-.14,1,.11,1.48,1.25,1.83a10.72,10.72,0,0,1,3.14,2.06c.44.34-.25,2.41-.77,2.34-.34,0-.71-.5-.89-.86A7.34,7.34,0,0,1,78.21,18c-.9,1.85-.51,2.7,1,3.16a3.71,3.71,0,0,1,1.06.82,7.68,7.68,0,0,0-.56,1.81c-.06,2.18,0,4.36,0,6.84a23.6,23.6,0,0,0-10.77,0l-.23-.37a13.92,13.92,0,0,0,1.11-2.95c.25-1.75.33-3.56-1.22-4.91C68.51,22.32,68.52,22.21,68.46,21.91Zm6.68,5.78c0-1.51,0-3,0-4.57a.75.75,0,0,0-1.33-.34,2.91,2.91,0,0,0-.6,1.34,13.88,13.88,0,0,0,0,2.14C73.18,27.77,73.36,27.91,75.14,27.69Zm1.21,0h1.43c0-1.45,0-2.83,0-4.21,0-.29-.43-.57-.67-.85-.24.26-.68.51-.69.78C76.31,24.87,76.35,26.29,76.35,27.74Zm-4.47-5.2-.67.12v5.09c.93.26,1.34-.08,1.3-1.05,0-.79.07-1.6,0-2.38A9.1,9.1,0,0,0,71.88,22.54Zm1.33-2.07L73,17.21l-.37,0-.94,3.22Zm3.7-.23c-.81-1.17,0-2.9-1.92-3.77a11.7,11.7,0,0,1,.58,1.6,5.18,5.18,0,0,1,.11,1.52C75.58,20.7,76,20.73,76.91,20.24Zm1.79,7.58c.74-1.08.68-3.21,0-3.84Z" transform="translate(-14.01 -4.75)"/><path d="M103.09,107.88c1.15.22,2.29.48,3.44.65,2,.28,3.92.48,5.86.79.73.12,1.32.5,1.14,1.46a11.65,11.65,0,0,0,0,1.8c-3.62-1.59-7.24-2.57-10.58-4.25Z" transform="translate(-14.01 -4.75)"/><path d="M45.8,108.41l-10.1,4c-1.06-1.91-.5-2.9,1.6-3.17,2.33-.3,4.65-.79,7-1.17a9.35,9.35,0,0,1,1.4,0Z" transform="translate(-14.01 -4.75)"/><path d="M114.43,109.45v-2.37h.15v2.37Z" transform="translate(-14.01 -4.75)"/><path class="cls-2" d="M74.86,141c.56-1.4,1-2.6,1.53-3.81q.92-2.34,1.8-4.69c.52-1.38,1.08-2.76,1.48-4.18a1.37,1.37,0,0,1,1.41-1.18q5.33,0,10.67,0c.8,0,1.21.45,1.21,1.29,0,7,0,14,0,21,0,.78-.36.95-1,.95-2,0-3.91,0-5.87,0-.89,0-1.17-.28-1.17-1.16,0-4.39,0-8.79,0-13.18v-1.91l-.32-.1c-.5,1.2-1,2.4-1.49,3.62q-.91,2.42-1.77,4.85c-.34,1-.59,2-.92,3-.49,1.43-1,2.87-1.55,4.26a1.4,1.4,0,0,1-1,.61q-2.93.08-5.87,0a1.28,1.28,0,0,1-.92-.62c-.47-1.08-.83-2.2-1.22-3.31-.55-1.53-1.08-3.07-1.61-4.61s-1.14-3.36-1.74-5a11.57,11.57,0,0,0-1.1-2.33,14.57,14.57,0,0,0-.2,1.6c0,4.27-.05,8.55,0,12.82,0,1.26-.41,1.58-1.58,1.54-1.83-.08-3.67-.05-5.51,0-.9,0-1.34-.32-1.33-1.25,0-6.79,0-13.58,0-20.36,0-1.21.47-1.62,1.68-1.62,3.36,0,6.72,0,10.07,0a1.67,1.67,0,0,1,1.76,1.12c.58,1.58,1,3.21,1.55,4.8.43,1.28.92,2.54,1.4,3.8S74.25,139.45,74.86,141Z" transform="translate(-14.01 -4.75)"/><path class="cls-2" d="M53.47,150.34c-3.36,0-6.47.06-9.57-.06-.41,0-.92-.86-1.14-1.42-.77-2-.72-2-2.82-2-2.71,0-5.43,0-8.15,0a1.54,1.54,0,0,0-1.73,1.38c-.39,1.83-.81,2.15-2.69,2.15H19.51a2.68,2.68,0,0,1,0-1c.71-1.41,1.48-2.79,2.23-4.19s1.55-2.84,2.29-4.27,1.45-3,2.21-4.47c1-1.94,2.06-3.85,3.06-5.79.34-.65.53-1.37.9-2a2.68,2.68,0,0,1,2.56-1.54c2.47.1,4.95.09,7.42,0a2.44,2.44,0,0,1,2.4,1.58c1.27,2.43,2.56,4.85,3.81,7.3s2.39,4.84,3.63,7.23c1,1.91,2.05,3.78,3.05,5.68A7.39,7.39,0,0,1,53.47,150.34ZM32.83,141.5h6.71c-.69-2.77-2-5.15-3.18-7.92Z" transform="translate(-14.01 -4.75)"/><path class="cls-2" d="M128.8,134.24c-1.85.29-3.46.51-5.06.79a13.89,13.89,0,0,0-2.39.58c-.92.32-1.35-.3-1.7-.86a5.08,5.08,0,0,0-4.23-2.3,8.12,8.12,0,0,0-4.62.66c-1,.5-2.5,2.43-2.52,3.54,0,1.44,0,2.88,0,4.31,0,2.08,1.36,3.42,3.32,4.16a7.7,7.7,0,0,0,6-.26,6.24,6.24,0,0,0,2.45-2.69c.65-1.14.81-1.27,2.08-.82a37.15,37.15,0,0,0,3.68.86,20.93,20.93,0,0,1,2.61.71,1.1,1.1,0,0,1,.36,1,14.89,14.89,0,0,1-2.56,3.64,18,18,0,0,1-4.48,2.55,9.79,9.79,0,0,1-3.23.66c-3,.18-6,.54-8.91-.31a2.83,2.83,0,0,0-.7-.11,10.49,10.49,0,0,1-6-2.24c-4.47-3.06-5.35-7.27-4.43-12.23a9.55,9.55,0,0,1,4.78-6.35,17.18,17.18,0,0,1,8.62-2.45,41.64,41.64,0,0,1,6.22.07c2.81.33,5.63.86,7.71,3.07.91,1,1.79,1.93,2.64,2.94A3.67,3.67,0,0,1,128.8,134.24Z" transform="translate(-14.01 -4.75)"/><path class="cls-2" d="M85.73,86.25c-1,0-1.92,0-2.84,0-1.23,0-2.47-.07-3.7-.06-.92,0-1.37-.26-1.34-1.31.07-2.55,0-5.11,0-7.66A4.45,4.45,0,0,1,81.51,73c1.45-.25,4.22,1.38,4.22,3.29C85.72,79.48,85.73,82.71,85.73,86.25Z" transform="translate(-14.01 -4.75)"/><path class="cls-2" d="M63.1,80.69c0-1.44,0-2.87,0-4.31A3.82,3.82,0,0,1,66.78,73c1.66,0,3.87,1.38,3.86,3.34,0,3,0,6,0,9,0,.65-.25.9-.92.92-1.66.06-3.32.2-5,.3-1.32.08-1.64-.21-1.64-1.5s0-2.87,0-4.31Z" transform="translate(-14.01 -4.75)"/><path class="cls-2" d="M93,97.5c0-1.32-.06-2.64,0-4a3.87,3.87,0,0,1,1.71-3.19c1.49-1,3.64.08,4.21,1.63,1.21,3.28.36,6.69.55,10a1.17,1.17,0,0,1-1.36,1.29c-1.24,0-2.48,0-3.72,0-1,0-1.43-.5-1.42-1.48C93,100.38,93,98.94,93,97.5Z" transform="translate(-14.01 -4.75)"/><path class="cls-2" d="M50,103.29c0-3.68-.06-7.18,0-10.68,0-1.3,2.16-2.72,3.58-2.61A2.88,2.88,0,0,1,56,92.93c0,3,0,6.06,0,9.09,0,1-.28,1.35-1.3,1.29C53.19,103.22,51.68,103.29,50,103.29Z" transform="translate(-14.01 -4.75)"/><path class="cls-2" d="M99.54,82c0,1.23,0,2.47,0,3.71S99,87.12,97.9,87a21.64,21.64,0,0,0-3.22-.15c-.81,0-1.12-.24-1.16-1.08-.11-2.57-.3-5.14-.49-7.71a4,4,0,0,1,1.12-3.42,3.14,3.14,0,0,1,3.54-.12,5.5,5.5,0,0,1,1.83,4.24C99.59,79.82,99.54,80.9,99.54,82Z" transform="translate(-14.01 -4.75)"/><path class="cls-2" d="M55.94,81c0,1.55,0,3.11,0,4.67,0,.91-.35,1.15-1.19,1.18-1.31,0-2.61.27-3.91.3a1.21,1.21,0,0,1-.86-.78c-.05-3.15-.09-6.3,0-9.45.07-2,3.26-3.71,4.88-2.65a3.35,3.35,0,0,1,1,2,10.49,10.49,0,0,1,0,2.38V81Z" transform="translate(-14.01 -4.75)"/><path class="cls-2" d="M104.87,103.9V100c0-2.23,0-4.47,0-6.7a2,2,0,0,1,.31-1.21c.32-.35,1-.8,1.26-.69a2,2,0,0,1,1.06,1.21c1,3.36.57,6.83.67,10.27,0,.8-.4,1.08-1.07,1.11S105.72,103.94,104.87,103.9Z" transform="translate(-14.01 -4.75)"/><path class="cls-2" d="M42,103.79c0-1.83,0-3.7,0-5.57,0-1.59,0-3.2.05-4.79s.86-2.3,1.84-2.07a1,1,0,0,1,.67.53,17.76,17.76,0,0,1,.59,3.37c.08,2.11,0,4.23,0,6.35S45.11,104.43,42,103.79Z" transform="translate(-14.01 -4.75)"/><path class="cls-2" d="M104.91,87.45c0-3.78,0-7.41,0-11,0-.33.56-.83.93-.92s.81.41,1,.75c1.35,3.45.46,7.06.62,10.6,0,.22-.46.63-.75.68A9.64,9.64,0,0,1,104.91,87.45Z" transform="translate(-14.01 -4.75)"/><path class="cls-2" d="M44.45,75.19c1.29,4,.47,7.65.66,11.25.06,1.19-.93,1.07-1.71,1.13s-.88-.48-.88-1.08c0-2.63-.07-5.26,0-7.9A6.16,6.16,0,0,1,43,76.2C43.22,75.78,43.87,75.58,44.45,75.19Z" transform="translate(-14.01 -4.75)"/><path class="cls-2" d="M110.8,92.06c.25.48.72,1,.73,1.43.08,3.52.06,7,.07,10.54a2,2,0,0,1-.11.46c-.79.22-1.37.23-1.36-.83,0-3.44,0-6.87.07-10.3a7.15,7.15,0,0,1,.22-1.21Z" transform="translate(-14.01 -4.75)"/><path class="cls-2" d="M37.92,92.23c.25.33.73.65.74,1,.05,3.74,0,7.49,0,11.32l-1.23.07V92.4Z" transform="translate(-14.01 -4.75)"/><path class="cls-2" d="M38.56,76.38V88l-1.19.12V85.68c0-2.4,0-4.79,0-7.19a9.32,9.32,0,0,1,.67-2.21Z" transform="translate(-14.01 -4.75)"/><path class="cls-2" d="M111,76.36a26.16,26.16,0,0,1,.57,3.49c.09,2.38,0,4.78,0,7.17,0,.93-.37,1.22-1.21,1V76.41Z" transform="translate(-14.01 -4.75)"/><path class="cls-2" d="M129.38,158.16v9.72a4.13,4.13,0,0,1-5.34-2,16.29,16.29,0,0,0-2.21-2.43l-.38.06c0,1.08-.07,2.16,0,3.22s-.36,1.45-1.43,1.42c-2.64-.08-2.47.26-2.48-2.45,0-2.12,0-4.23,0-6.34,0-.9.35-1,1.17-1.21,2.29-.48,3.5.93,4.7,2.42.52.64,1,1.34,1.49,2,.12.15.46.28.58.21a.88.88,0,0,0,.42-.6c0-1,.06-2,0-3,0-.72.25-1,1-1S128.5,158.16,129.38,158.16Z" transform="translate(-14.01 -4.75)"/><path class="cls-2" d="M31.39,168v-9.75c2.68,0,5.27-.13,7.85.06a3.78,3.78,0,0,1,3,2.73c.9,2.42.55,5.4-2.6,6.54A22.82,22.82,0,0,1,31.39,168Zm7.32-4.89c0-2-.73-2.85-2.43-2.85-.74,0-1,.3-1,1,0,1.15,0,2.31,0,3.46a1.18,1.18,0,0,0,.82.79C37.8,165.54,38.89,165.73,38.71,163.09Z" transform="translate(-14.01 -4.75)"/><path class="cls-2" d="M109.22,158.07c2,0,3.72,0,5.16,1.54,1.85,1.93,1.77,6.8-1.61,8-2.84,1-5.61,1.08-8.21-.72-2-1.38-2.15-5.39-.53-6.94C106.05,158,106.29,158.25,109.22,158.07Zm2.44,4.92c0-.21,0-.61,0-1a1.88,1.88,0,0,0-2-1.75c-1.46-.06-2.56.53-2.7,1.58a11.09,11.09,0,0,0,0,2.51c.1.87,2.12,2,2.91,1.66C111.54,165.29,111.64,165.15,111.66,163Z" transform="translate(-14.01 -4.75)"/><path class="cls-2" d="M18.91,158.16H28.3c.72,0,1.08.45.9,1.08-.11.38-.58.91-.91.93-1.75.09-3.51,0-5.31,0-.31,1-.22,1.51.93,1.45s2.24,0,3.36,0,1.54.44,1.26,2H24.4c-1.58,0-1.69.13-1.45,1.91,1.59,0,3.22,0,4.84,0,1.15,0,1.59.53,1.54,1.62,0,.65-.33.94-1,.94H18.91Z" transform="translate(-14.01 -4.75)"/><path class="cls-2" d="M44.62,158.32l.3-.12c3.55-.3,3.55-.3,3.55,3.21,0,.68,0,1.36,0,2,0,1.81.15,2,1.77,2.57.71.25,2.34-.93,2.35-1.73,0-2,0-4,0-6.12a25.57,25.57,0,0,1,3.06.05,1.22,1.22,0,0,1,.77.89c.07,1.68.08,3.36,0,5-.07,2-2.34,4.12-4.08,4a35.82,35.82,0,0,0-3.59,0c-2,.06-4.44-2-4.2-4.32A52.86,52.86,0,0,0,44.62,158.32Z" transform="translate(-14.01 -4.75)"/><path class="cls-2" d="M84.15,168.09a14.9,14.9,0,0,1-3.07-.05c-.49-.12-.86-.76-1.28-1.17-.2-.2-.37-.6-.57-.61a25,25,0,0,0-3.35,0c-.26,0-.65.49-.69.79-.12.82-.58,1.05-1.32,1s-1.74,0-2.92,0l4.56-9.92c1.13,0,2.52-.05,3.9,0,.32,0,.74.47.9.83,1,2.17,1.9,4.37,2.84,6.57C83.45,166.34,83.74,167.07,84.15,168.09Zm-6.85-6.57-.94,2.54h2.18C78.38,163,78.79,161.86,77.3,161.52Z" transform="translate(-14.01 -4.75)"/><path class="cls-2" d="M70.23,165.11c-.89,1.87-2.19,3.06-4.34,3-1.61,0-3.25.31-4.77-.59a4.78,4.78,0,0,1-2.67-4.3c0-2,.54-3.67,2.41-4.47a9,9,0,0,1,7.86.17c.55.28.8,1.14,1.19,1.74a9.79,9.79,0,0,1-1.69.83,1.66,1.66,0,0,1-2-.72,1.94,1.94,0,0,0-2.51-.4,3.26,3.26,0,0,0-1.23,1.67,3.55,3.55,0,0,0-.07,1.53c.05,1.48.48,2.2,1.9,2.38a2.28,2.28,0,0,0,2.31-1.16c.54-.95,1.43-.71,2.23-.47A7.74,7.74,0,0,1,70.23,165.11Z" transform="translate(-14.01 -4.75)"/><path class="cls-2" d="M91.06,168c-4.29.18-3.43.47-3.53-2.89,0-1,0-2.08,0-3.11S87,160.49,86,160.44a9.45,9.45,0,0,0-1.19,0c-.89.05-1.31-.28-1.32-1.23s.51-1.07,1.29-1.06c3,0,6,0,9,0,.39,0,.78,0,1.14.07.44,2,.32,2.2-1.69,2.2-1.7,0-2.3.22-2.18,2.17C91.15,164.37,91.06,166.16,91.06,168Z" transform="translate(-14.01 -4.75)"/><path class="cls-2" d="M97.06,158.17a22.62,22.62,0,0,1,2.86,0,1.24,1.24,0,0,1,.83.86c.06,2.59,0,5.18,0,7.77a1.12,1.12,0,0,1-1.34,1.27c-.75-.05-1.5,0-2.37,0Z" transform="translate(-14.01 -4.75)"/><path class="cls-2" d="M73,33.33a26.78,26.78,0,0,0-3.25,10.53c-.28,2.14-.72,4.26-1.09,6.38a7.94,7.94,0,0,0-.13.83c-.24,4-.5,7.93-.71,11.9-.09,1.76-.09,1.83-1.82,1.86s-3.58,0-5.73,0c.22-2.06.42-4.11.64-6.16,0-.44.19-.86.21-1.29A34,34,0,0,1,63,48.52c.73-2.2,1.32-4.45,2.19-6.59,1.31-3.25,3-6.28,6-8.39A5.66,5.66,0,0,1,72.88,33Z" transform="translate(-14.01 -4.75)"/><path class="cls-2" d="M76.06,32.91a7.09,7.09,0,0,1,2.24,1,18.63,18.63,0,0,1,4.84,6.87c.77,2,1.71,4,2.44,6a31.08,31.08,0,0,1,.85,3.64c.37,1.55.76,3.11,1.13,4.66a1,1,0,0,1,0,.24c.27,2.91.53,5.83.8,8.74.06.65-.14,1-.86.92-1.72-.08-3.44-.11-5.16-.13-.88,0-1.31-.35-1.27-1.29a31.84,31.84,0,0,0,0-3.24c-.22-3.36-.39-6.74-.77-10.09A78.23,78.23,0,0,0,79,42.06c-.5-2.27-1.23-4.5-2-6.73a10.57,10.57,0,0,0-1.15-2Z" transform="translate(-14.01 -4.75)"/><path class="cls-2" d="M79.31,33.13a24.85,24.85,0,0,1,3.4,1.42,24.36,24.36,0,0,1,7.84,6.75,53.85,53.85,0,0,1,3.86,6.09C95.82,50.13,97,53,98.15,55.84A22.69,22.69,0,0,1,99,59.53c.35,1.68.65,3.38,1,5,.2.87-.27,1.15-.92,1.14a38.17,38.17,0,0,1-4.54-.29c-.33,0-.78-.66-.84-1.07-.34-2.18-.45-4.4-.89-6.56-.41-2-1.13-3.91-1.72-5.85-.46-1.49-.86-3-1.41-4.45A39.12,39.12,0,0,0,86,40.19,27.4,27.4,0,0,0,81,34.82a21.13,21.13,0,0,0-1.89-1.37Z" transform="translate(-14.01 -4.75)"/><path class="cls-2" d="M49,65.37c.11-.94.16-1.73.32-2.49.39-1.83.79-3.67,1.27-5.48.38-1.43.82-2.86,1.34-4.25.66-1.76,1.36-3.51,2.17-5.21a37.16,37.16,0,0,1,5.65-8.27,25.13,25.13,0,0,1,7-5.3A13.75,13.75,0,0,1,69,33.56l.12.36c-1,.84-2,1.64-3,2.52A20.75,20.75,0,0,0,61.2,43.1C60.15,45.41,59,47.65,58.05,50a30.1,30.1,0,0,0-1.41,5.31c-.55,3-.94,6-1.47,9-.07.42-.53,1.07-.87,1.11-1.58.18-3.18.19-4.77.23C49.32,65.65,49.1,65.45,49,65.37Z" transform="translate(-14.01 -4.75)"/><path class="cls-2" d="M63,35.29c-1.47,1-2.94,1.8-4.28,2.8a30.71,30.71,0,0,0-7.37,7.8,65.92,65.92,0,0,0-4.06,7.37,42.42,42.42,0,0,0-2.45,6.25,27.19,27.19,0,0,0-.87,5.1c-.18,1.78-.4,2.11-2.12,2.32-.39,0-.75.27-1.13.33-.59.09-1.19.11-1.88.17.4-1.91.69-3.58,1.11-5.21a42.77,42.77,0,0,1,1.33-4.11,45.1,45.1,0,0,1,2-5c.87-1.72,2-3.32,3-5a34.19,34.19,0,0,1,9-9.27c1.7-1.23,3.67-2.08,5.48-3.17C61.48,35.25,62.11,34.76,63,35.29Z" transform="translate(-14.01 -4.75)"/><path class="cls-2" d="M110.07,67.46a10.58,10.58,0,0,1-1.69,0,5.57,5.57,0,0,1-2.36-.63,3.06,3.06,0,0,1-1-2,42.2,42.2,0,0,0-2-8,43.44,43.44,0,0,0-4-8.64A34.56,34.56,0,0,0,90.19,38.1c-1.22-1-2.6-1.75-4.23-2.83.66-.07,1.11-.26,1.38-.11,1.74,1,3.41,2.06,5.15,3a24.94,24.94,0,0,1,6.69,5.56A35,35,0,0,1,105,52c.76,1.67,1.67,3.26,2.42,4.94a23.54,23.54,0,0,1,.9,2.92c.39,1.26.83,2.51,1.13,3.79S109.84,66,110.07,67.46Z" transform="translate(-14.01 -4.75)"/><path class="cls-2" d="M71.66,111.43l1.38.21-.3-1.6,1.13-.29c-.23-.64-.41-1.27-.68-1.87s.08-3.37.67-3.82c.22-.16.71-.29.84-.17.42.39,1.11,1,1,1.35-.2,1,.51,2.16-.48,3.09-.22.2,0,.83,0,1.36l1,.36-.42,1.83,1.33-.59,0-.05c-.07,1.24-.21,2.45,1.34,3,1.3.49,3.33,0,3.49-1.84.24-2.77-1.1-3.25-3.43-3.77-.42-.09-.93.28-1.4.44l0,0H76a3.22,3.22,0,0,1,4.5-1.67c.71.39,1.31,1,2,1.37a5.63,5.63,0,0,0,1.43.42c.33.07.67.09,1,.13,0,.17,0,.47-.1.5a11.13,11.13,0,0,1-1.28.39.6.6,0,0,1-.18,0c.15,1,.29,2,.44,3-.83.26-1.74,1.82-1.34,2.47A11.56,11.56,0,0,0,84.33,118a2.77,2.77,0,0,0,3.76-.38,1.76,1.76,0,0,0,.09-1.32c-.07-.22-.6-.3-.93-.45l-.15.29.64.93c-.49.08-1,.28-1.12.15-.62-.69-1.14-1.47-1.69-2.22l1.11.07-.59-2.45h-.23l-.26,2.4a1.62,1.62,0,0,1-1.15-1.87,9.07,9.07,0,0,1,1.12-1.26,3.5,3.5,0,0,1,4.1-.25,9.85,9.85,0,0,0,1,.43l1.24-1.56.34,0a25.89,25.89,0,0,1-.58,6.49l.44.13a16.93,16.93,0,0,0,.67-1.66A4.54,4.54,0,0,1,97,112.48a4.12,4.12,0,0,1,3.35,3.5c.3,1.67,1.22,2.53,2.61,2.25l-.77-1.5c1.39-.32,1.56-.12,1.47,1.85h6.93l0,.44c-.35,0-.71.06-1.06.06a36.35,36.35,0,0,0-4.43,0,6.73,6.73,0,0,1-3.09,0c-.11,0-.27,0-.35,0-1.22-.94-2.1-.48-3,.56-.2.24-.86.22-1.26.11a16.35,16.35,0,0,1-2.36-.89c-1.29-.58-.68-1.73-.64-2.61s1.13-1.38,2.33-1.27c1,.1,1.54,1,1,1.79a2.07,2.07,0,0,1-1.32.61,4,4,0,0,1-1.28-.3c.38,1.29.82,1.54,2.2,1.41A1.63,1.63,0,0,0,99,116.85c.13-1.85-.37-2.7-1.78-2.95-1.85-.33-2.8.44-3.61,1.86-.95,1.66-.44,2.73.87,3.8-1,.25-1.4,0-2.51-1.4a7.61,7.61,0,0,0-1.38.73c-2,1.65-4.2,1.5-6.36.84a3.71,3.71,0,0,1-2.3-3.2c-.1-.61-.32-.85-.94-.73-1.1.2-2.22.31-3.3.57-.88.22-.63.89-.43,1.64l1-.7.36.1a4.76,4.76,0,0,1-.39,1.6c-.11.17-.88-.1-1.33-.44l-1.41.65-.34-.29,1.75-3.31-1.53-3.25c0,.58-.1,1-.11,1.42a19.43,19.43,0,0,1,0,2.16c0,.3-.37.57-.58.86-.29-.3-.81-.58-.84-.91-.11-1.08,0-2.18,0-3.53L72,115.61l1.81,3.28-.28.32-1.26-.48c-.56.09-1.23.4-1.52.19s-.31-.94-.44-1.44l.37-.15.87.62c.43-1.25,0-2-1.22-2s-2.23-.08-3.35-.11l0,0a20.43,20.43,0,0,1-1.6-3.12,6.75,6.75,0,0,1,.08-2.35c-.08,0-.35.14-.48,0a13.12,13.12,0,0,1-1.15-1,9.77,9.77,0,0,0,1.1-.25,5.09,5.09,0,0,0,1.63-.7c1.35-1.16,3.84-2.06,5.56-.63.11.09.27.15.35.26s.27.54.48,1a13,13,0,0,0-1.45-.41,4.08,4.08,0,0,0-4.73,2.7,3.17,3.17,0,0,0,.78,2.37,2.33,2.33,0,0,0,3,.47c1.32-.6,1.49-1.13,1.12-2.81C71.68,111.41,71.66,111.43,71.66,111.43Zm16.13,1.25a5.22,5.22,0,0,1,.52,1.47c0,1.23.94,1.71,1.74,2.47C90.49,114.3,89.3,112.42,87.79,112.68Z" transform="translate(-14.01 -4.75)"/><path class="cls-2" d="M67,115.8c-.32,1.32-.17,3-1.79,3.52a8.64,8.64,0,0,1-3.91.72c-1.51-.23-2.9-1.17-4.34-1.8-.54.45-1.21,1-1.89,1.56-.06,0-.27-.09-.44-.15a10.18,10.18,0,0,0,1.17-1.83c.33-.86-.85-3.2-1.76-3.75a4.07,4.07,0,0,0-3.8.65c-.61.62-.33,2.74.46,3.43a2.41,2.41,0,0,0,3.13-.42c.18-.29.07-.76.1-1.51-.8.85-1.28,1.82-2.22,1a1.79,1.79,0,0,1-.53-1.35c0-.31.52-.77.87-.85a1.82,1.82,0,0,1,2.44,1.41c.31,1.93.09,2.28-1.64,2.68a3.09,3.09,0,0,0-.46.13c-1.63.81-1.93.75-3.14-.37-.25-.23-.85-.43-1.07-.29-1.23.77-2.5.6-3.85.48-1.73-.16-3.48,0-5.23,0v-.39h6c.13-2.17.13-2.18,1.56-2L46,118.21c1.18.52,1.61-.17,2-.93.63-1.23,1.19-2.49,1.9-3.67,1-1.69,4.11-1.45,5.38-.2a3.89,3.89,0,0,1,1.53,2.64c0,.41.43.81.67,1.22l.3-.12-.63-6.52.44-.15,1.31,1.72c1.64-1.11,3.37-1.63,5.11-.27,1.45,1.13,1.25,2.9-.36,3.91a2.42,2.42,0,0,0-.72.83c-.4.68-.87.89-1.58.3l.46-.92-.3-.3c-.3.29-.77.54-.86.88a1.49,1.49,0,0,0,1.15,1.77,3.26,3.26,0,0,0,4.11-1.78c.19-.36.76-.53,1.16-.79Zm-6-3.37a4.51,4.51,0,0,0-1.24.75,3.38,3.38,0,0,0-1,3.33C60.49,115.78,60.4,114,61,112.43Zm2.78.4-.3-.07-.62,2.3h1.07Z" transform="translate(-14.01 -4.75)"/><path class="cls-2" d="M77.1,111.29v-2.22l0,0a10.53,10.53,0,0,1,2.43.82A3.67,3.67,0,0,1,81,111.71c.12.37-.63,1.05-1,1.56a5.87,5.87,0,0,1-.8.64c-.5-.62-1.34-1.19-1.33-1.75s.92-1,1.43-1.55v-.2l-2.23.83Z" transform="translate(-14.01 -4.75)"/><path class="cls-2" d="M69.16,110.52c.2.16.37.41.6.48.6.18,1.3.13,1.36,1s-.57.93-1,1.34c-.83.75-1.22-.12-1.56-.33a1.75,1.75,0,0,1-.57-1.52c.09-.4.79-.66,1.22-1Z" transform="translate(-14.01 -4.75)"/><path class="cls-2" d="M69.18,110.54c.13-.22.22-.58.4-.64.65-.22,1.33-.35,2.2-.55,0,.63-.07,1.35-.11,2.07,0,0,0,0,0,0-.5-1.28-1.68-.63-2.52-.9Z" transform="translate(-14.01 -4.75)"/><path class="cls-2" d="M75.14,27.69c-1.78.22-2,.08-2-1.43a13.88,13.88,0,0,1,0-2.14,2.91,2.91,0,0,1,.6-1.34.75.75,0,0,1,1.33.34C75.19,24.65,75.14,26.18,75.14,27.69Z" transform="translate(-14.01 -4.75)"/><path class="cls-2" d="M76.35,27.74c0-1.45,0-2.87,0-4.28,0-.27.45-.52.69-.78.24.28.66.56.67.85.08,1.38,0,2.76,0,4.21Z" transform="translate(-14.01 -4.75)"/><path class="cls-2" d="M71.88,22.54a9.1,9.1,0,0,1,.6,1.78c.1.78,0,1.59,0,2.38,0,1-.37,1.31-1.3,1.05V22.66Z" transform="translate(-14.01 -4.75)"/><path class="cls-2" d="M73.21,20.47h-1.5l.94-3.22.37,0Z" transform="translate(-14.01 -4.75)"/><path class="cls-2" d="M76.91,20.24c-.88.49-1.33.46-1.23-.65a5.18,5.18,0,0,0-.11-1.52,11.7,11.7,0,0,0-.58-1.6C76.87,17.34,76.1,19.07,76.91,20.24Z" transform="translate(-14.01 -4.75)"/><path class="cls-2" d="M78.7,27.82V24C79.38,24.61,79.44,26.74,78.7,27.82Z" transform="translate(-14.01 -4.75)"/><path d="M32.83,141.5l3.53-7.92c1.18,2.77,2.49,5.15,3.18,7.92Z" transform="translate(-14.01 -4.75)"/><path d="M38.71,163.09c.18,2.64-.91,2.45-2.56,2.39a1.18,1.18,0,0,1-.82-.79c-.09-1.15,0-2.31,0-3.46,0-.69.25-1,1-1C38,160.24,38.71,161.05,38.71,163.09Z" transform="translate(-14.01 -4.75)"/><path d="M111.66,163c0,2.16-.12,2.3-1.86,3-.79.31-2.81-.79-2.91-1.66a11.09,11.09,0,0,1,0-2.51c.14-1,1.24-1.64,2.7-1.58a1.88,1.88,0,0,1,2,1.75C111.66,162.38,111.65,162.78,111.66,163Z" transform="translate(-14.01 -4.75)"/><path d="M77.3,161.52c1.49.34,1.08,1.5,1.24,2.54H76.36Z" transform="translate(-14.01 -4.75)"/><path d="M83.81,113.18A1.62,1.62,0,0,0,85,115.05l0,0c.56.75,1.08,1.53,1.7,2.22.12.13.63-.07,1.12-.15l-.64-.93.15-.29c.33.15.86.23.93.45a1.76,1.76,0,0,1-.09,1.32,2.77,2.77,0,0,1-3.76.38,11.56,11.56,0,0,1-1.82-2.34c-.4-.65.51-2.21,1.34-2.47Z" transform="translate(-14.01 -4.75)"/><path d="M77.06,111.24l2.23-.83v.2c-.51.51-1.42,1-1.43,1.55s.83,1.13,1.33,1.75a5.87,5.87,0,0,0,.8-.64c.39-.51,1.14-1.19,1-1.56a3.67,3.67,0,0,0-1.53-1.78,10.53,10.53,0,0,0-2.43-.82c.47-.16,1-.53,1.4-.44,2.33.52,3.67,1,3.43,3.77-.16,1.85-2.19,2.33-3.49,1.84C76.85,113.69,77,112.48,77.06,111.24Z" transform="translate(-14.01 -4.75)"/><path d="M87.79,112.68c1.51-.26,2.7,1.62,2.26,3.94-.8-.76-1.71-1.24-1.74-2.47A5.22,5.22,0,0,0,87.79,112.68Z" transform="translate(-14.01 -4.75)"/><path d="M85,115.05l.26-2.4h.23l.59,2.45L84.93,115Z" transform="translate(-14.01 -4.75)"/><path d="M61,112.43c-.59,1.61-.5,3.35-2.19,4.08a3.38,3.38,0,0,1,1-3.33A4.51,4.51,0,0,1,61,112.43Z" transform="translate(-14.01 -4.75)"/><path d="M63.77,112.83l.15,2.23H62.85l.62-2.3Z" transform="translate(-14.01 -4.75)"/><line class="cls-3" x1="147.01" x2="147.01" y2="182.64"/></svg>